<svg style="display: none;" aria-hidden="true" xmlns="http://www.w3.org/2000/svg" xmlns:xlink="http://www.w3.org/1999/xlink"><symbol viewBox="0 0 27 21" id="arrow"><path d="M16.9989 0.317871L14.79 0.317871C15.3835 4.27172 17.4275 7.63256 20.5265 9.34587L0.240967 9.24703L0.240967 11.3887L20.5265 11.2899C17.4275 13.0032 15.3835 16.364 14.79 20.3179H16.9989C17.6912 15.2767 21.2518 11.191 26.3948 11.191V9.44472C21.2518 9.44472 17.6912 5.35903 16.9989 0.317871Z"/></symbol><symbol viewBox="0 0 8 16" id="facebook"><path d="M4.93396 0.0305567C4.21945 0.114944 3.44813 0.449486 2.92196 0.910609C2.53929 1.24214 2.23137 1.73038 2.07591 2.24274L1.99519 2.51399L2.00117 3.84613L2.01014 5.18128H1.10728C0.189473 5.18128 0.123702 5.1873 0.0399934 5.29882C-0.0138193 5.37115 -0.0138193 8.03843 0.042983 8.11077C0.117723 8.21324 0.234317 8.22529 1.08037 8.22529H1.91447V11.7214C1.91447 14.2169 1.92344 15.2356 1.94736 15.2868C1.96529 15.329 2.01313 15.3772 2.05498 15.3953C2.10281 15.4194 2.58414 15.4285 3.60359 15.4285H5.08045L5.16416 15.3561L5.24787 15.2838L5.25684 11.7696L5.26282 8.25543H6.23742C7.31966 8.25543 7.35553 8.24941 7.40935 8.06857C7.46017 7.90281 7.72624 5.44348 7.70233 5.35307C7.66346 5.19032 7.59171 5.18128 6.36897 5.18128H5.26282V4.29821C5.26282 3.77078 5.27477 3.37295 5.2957 3.30363C5.34055 3.14088 5.50796 2.96607 5.67239 2.90881C5.786 2.86963 5.96238 2.86059 6.64102 2.86059C7.14327 2.86059 7.50501 2.84853 7.55285 2.83045C7.71428 2.76716 7.71129 2.79127 7.71428 1.43804C7.71428 0.74786 7.70531 0.160153 7.69635 0.133028C7.64552 0.00343132 7.56779 -0.0025959 6.33309 0.000417709C5.68734 0.00343132 5.05653 0.0154867 4.93396 0.0305567Z"/></symbol><symbol viewBox="0 0 16 16" id="instagram"><path fill-rule="evenodd" clip-rule="evenodd" d="M3.66167 0.0449736C1.9442 0.28604 0.56119 1.52151 0.139356 3.19391C0.0971724 3.3506 0.051976 3.60071 0.0338974 3.75137C-0.0112991 4.12503 -0.0112991 11.3028 0.0338974 11.6764C0.241801 13.4332 1.49224 14.8615 3.19464 15.2894C3.35132 15.3316 3.60442 15.3768 3.75206 15.3949C4.12569 15.4401 11.3029 15.4401 11.6765 15.3949C13.2584 15.2081 14.5811 14.1745 15.1566 12.6799C15.25 12.4358 15.3585 11.9778 15.3947 11.6764C15.4399 11.3028 15.4399 4.12503 15.3947 3.75137C15.2079 2.16937 14.1744 0.846521 12.6799 0.270974C12.4358 0.17756 11.9778 0.0690803 11.6765 0.0329203C11.2637 -0.0183064 4.02023 -0.00625305 3.66167 0.0449736ZM12.5835 2.00967C12.9721 2.13924 13.2855 2.45263 13.4181 2.84436C13.4814 3.03119 13.4844 3.39881 13.4241 3.59769C13.177 4.41431 12.2038 4.76386 11.4957 4.29076C11.0799 4.01655 10.86 3.52537 10.9353 3.04625C11.0136 2.56412 11.3421 2.16937 11.791 2.01569C11.9959 1.94639 12.3846 1.94036 12.5835 2.00967ZM8.37717 3.54044C9.27206 3.68809 10.0615 4.09188 10.6973 4.73071C11.5078 5.53828 11.9326 6.56583 11.9326 7.71391C11.9326 8.86199 11.5078 9.88954 10.6973 10.6971C9.88974 11.5077 8.86228 11.9326 7.71429 11.9326C6.5663 11.9326 5.53883 11.5077 4.73132 10.6971C3.92079 9.88954 3.49595 8.86199 3.49595 7.71391C3.49595 6.56583 3.92079 5.53828 4.73132 4.73071C5.35503 4.10394 6.14747 3.69412 7.02127 3.54044C7.33162 3.48921 8.06381 3.4862 8.37717 3.54044ZM12.0123 2.90735C11.8374 3.00076 11.7711 3.2569 11.8766 3.41962C12.0817 3.733 12.5582 3.59439 12.5582 3.22375C12.5582 2.95255 12.2506 2.77778 12.0123 2.90735ZM4.39798 7.71278C4.39798 6.11572 5.55803 4.72958 7.12785 4.44633C8.54099 4.1902 9.99331 4.91038 10.6562 6.19105C11.6806 8.18286 10.4814 10.5965 8.27283 10.9823C6.26309 11.3318 4.39798 9.75884 4.39798 7.71278Z"/></symbol><symbol viewBox="0 0 20 16" id="twitter"><path d="M12.4692 0.061552C12.0954 0.144987 11.8682 0.223786 11.5465 0.381388C10.4912 0.895907 9.73886 1.80906 9.43602 2.94008C9.33192 3.34335 9.29406 4.10818 9.36031 4.51145L9.4029 4.73858L8.9581 4.71077C7.3871 4.60879 5.65522 4.05719 4.18833 3.18575C3.37918 2.70832 2.78769 2.24478 1.99273 1.47069C1.14571 0.640965 1.22143 0.659507 0.999026 1.21111C0.629937 2.15208 0.596814 3.00498 0.90912 3.86251C1.15045 4.52999 1.66149 5.25774 2.17727 5.67028L2.44699 5.8835H2.29557C2.02112 5.8835 1.42017 5.73981 1.05581 5.58221L0.68672 5.42924V5.66101C0.68672 6.47682 1.12679 7.46415 1.79399 8.14554C2.28611 8.65079 2.76876 8.95208 3.45489 9.17458L3.83344 9.29973L3.4265 9.35999C3.1899 9.39244 2.81608 9.41098 2.5369 9.39707C1.9738 9.36926 1.98799 9.32754 2.32869 9.96722C2.69778 10.6579 3.30347 11.2558 3.99906 11.6035C4.50537 11.8584 4.77036 11.9419 5.2956 12.016L5.71674 12.0763L5.5322 12.22C5.43283 12.2988 5.20569 12.4471 5.03061 12.5537C3.65836 13.3695 2.12995 13.7635 0.525835 13.7079C-0.174488 13.6801 -0.174488 13.6847 0.521103 14.0509C2.90125 15.3025 5.47068 15.7057 8.13948 15.2422C12.1758 14.5423 15.384 11.724 16.7042 7.733C17.0591 6.6576 17.2484 5.52195 17.2484 4.46973V3.85324L17.5229 3.65392C18.0292 3.27846 18.8194 2.45337 19.1648 1.92958L19.25 1.80443L19.0276 1.89713C18.5449 2.09645 17.1443 2.45801 17.0828 2.39775C17.0733 2.38848 17.2153 2.26796 17.3998 2.1289C17.9251 1.7349 18.4266 1.06278 18.6443 0.455552L18.7058 0.284047L18.1333 0.552895C17.5938 0.807837 16.9456 1.03497 16.4345 1.16012L16.2074 1.21111L15.9613 0.99325C15.4645 0.552895 14.8635 0.242329 14.2058 0.0893631C13.7563 -0.0172491 12.895 -0.0311546 12.4692 0.061552Z"/></symbol></svg>